HIERARCHY
ROOT Hips
{
	OFFSET -0.089718 121.760773 1.256875
	CHANNELS 6 Xposition Yposition Zposition Xrotation Yrotation Zrotation 
	JOINT Spine
	{
		OFFSET 0.071961 7.257324 -0.789679
		CHANNELS 3 Xrotation Yrotation Zrotation
		JOINT Spine1
		{
			OFFSET 0.000000 12.508743 -0.658066
			CHANNELS 3 Xrotation Yrotation Zrotation
			JOINT Spine1_split
			{
				OFFSET 0.000000 12.508743 -0.658066
				CHANNELS 3 Xrotation Yrotation Zrotation
				JOINT Spine2
				{
					OFFSET 0.000000 12.508743 -0.658066
					CHANNELS 3 Xrotation Yrotation Zrotation
					JOINT Neck
					{
						OFFSET 0.000000 14.033295 7.520357
						CHANNELS 3 Xrotation Yrotation Zrotation
						JOINT Head
						{
							OFFSET 0.000000 8.198502 5.703135
							CHANNELS 3 Xrotation Yrotation Zrotation
							JOINT HeadTop_End
							{
								OFFSET 0.000000 17.760834 13.332673
								CHANNELS 3 Xrotation Yrotation Zrotation
								End Site
								{
									OFFSET 0.000000 0.000000 0.000000
								}
							}
						}
					}
					JOINT LeftShoulder
					{
						OFFSET 6.292447 5.785309 -0.668987
						CHANNELS 3 Xrotation Yrotation Zrotation
						JOINT LeftShoulder_split
						{
							OFFSET 6.292447 5.785309 -0.668987
							CHANNELS 3 Xrotation Yrotation Zrotation
							JOINT LeftArm
							{
								OFFSET 13.906050 -6.096512 1.965051
								CHANNELS 3 Xrotation Yrotation Zrotation
								JOINT LeftForeArm
								{
									OFFSET 34.136707 -0.070145 0.483191
									CHANNELS 3 Xrotation Yrotation Zrotation
									JOINT LeftHand
									{
										OFFSET 40.956070 -0.000046 0.579759
										CHANNELS 3 Xrotation Yrotation Zrotation
										JOINT LeftHandThumb1
										{
											OFFSET 9.870941 -7.205917 9.687083
											CHANNELS 3 Xrotation Yrotation Zrotation
											JOINT LeftHandThumb2
											{
												OFFSET 1.819832 -1.059479 1.085292
												CHANNELS 3 Xrotation Yrotation Zrotation
												JOINT LeftHandThumb3
												{
													OFFSET 2.094803 -1.219498 1.249332
													CHANNELS 3 Xrotation Yrotation Zrotation
													JOINT LeftHandThumb4
													{
														OFFSET 4.803749 -2.796570 2.864868
														CHANNELS 3 Xrotation Yrotation Zrotation
														End Site
														{
															OFFSET 0.000000 0.000000 0.000000
														}
													}
												}
											}
										}
										JOINT LeftHandIndex1
										{
											OFFSET 18.323029 -0.939438 4.853191
											CHANNELS 3 Xrotation Yrotation Zrotation
											JOINT LeftHandIndex2
											{
												OFFSET 4.710793 -0.000031 0.066666
												CHANNELS 3 Xrotation Yrotation Zrotation
												JOINT LeftHandIndex3
												{
													OFFSET 2.876877 -0.226105 0.045824
													CHANNELS 3 Xrotation Yrotation Zrotation
													JOINT LeftHandIndex4
													{
														OFFSET 6.145302 -0.000046 0.087005
														CHANNELS 3 Xrotation Yrotation Zrotation
														End Site
														{
															OFFSET 0.000000 0.000000 0.000000
														}
													}
												}
											}
										}
										JOINT LeftHandMiddle1
										{
											OFFSET 18.011223 0.000015 0.254925
											CHANNELS 3 Xrotation Yrotation Zrotation
											JOINT LeftHandMiddle2
											{
												OFFSET 4.946175 -0.000015 0.070024
												CHANNELS 3 Xrotation Yrotation Zrotation
												JOINT LeftHandMiddle3
												{
													OFFSET 3.341888 0.000015 0.047322
													CHANNELS 3 Xrotation Yrotation Zrotation
													JOINT LeftHandMiddle4
													{
														OFFSET 4.461334 -0.000031 0.063172
														CHANNELS 3 Xrotation Yrotation Zrotation
														End Site
														{
															OFFSET 0.000000 0.000000 0.000000
														}
													}
												}
											}
										}
										JOINT LeftHandRing1
										{
											OFFSET 15.906670 -0.087616 -3.901815
											CHANNELS 3 Xrotation Yrotation Zrotation
											JOINT LeftHandRing2
											{
												OFFSET 3.526680 -0.000031 0.049965
												CHANNELS 3 Xrotation Yrotation Zrotation
												JOINT LeftHandRing3
												{
													OFFSET 2.960831 -0.000015 0.041910
													CHANNELS 3 Xrotation Yrotation Zrotation
													JOINT LeftHandRing4
													{
														OFFSET 4.926727 -0.000031 0.069761
														CHANNELS 3 Xrotation Yrotation Zrotation
														End Site
														{
															OFFSET 0.000000 0.000000 0.000000
														}
													}
												}
											}
										}
										JOINT LeftHandPinky1
										{
											OFFSET 12.886803 -0.806839 -6.620516
											CHANNELS 3 Xrotation Yrotation Zrotation
											JOINT LeftHandPinky2
											{
												OFFSET 3.326813 0.000000 0.047121
												CHANNELS 3 Xrotation Yrotation Zrotation
												JOINT LeftHandPinky3
												{
													OFFSET 3.014618 -0.000031 0.042702
													CHANNELS 3 Xrotation Yrotation Zrotation
													JOINT LeftHandPinky4
													{
														OFFSET 5.847153 0.000031 0.082745
														CHANNELS 3 Xrotation Yrotation Zrotation
														End Site
														{
															OFFSET 0.000000 0.000000 0.000000
														}
													}
												}
											}
										}
									}
								}
							}
						}
					}
					JOINT RightShoulder
					{
						OFFSET -6.292447 5.785309 -0.668987
						CHANNELS 3 Xrotation Yrotation Zrotation
						JOINT RightShoulder_split
						{
							OFFSET -6.292447 5.785309 -0.668987
							CHANNELS 3 Xrotation Yrotation Zrotation
							JOINT RightArm
							{
								OFFSET -13.906046 -6.096527 1.965051
								CHANNELS 3 Xrotation Yrotation Zrotation
								JOINT RightForeArm
								{
									OFFSET -34.136711 -0.070145 0.483195
									CHANNELS 3 Xrotation Yrotation Zrotation
									JOINT RightHand
									{
										OFFSET -40.956062 -0.000031 0.579796
										CHANNELS 3 Xrotation Yrotation Zrotation
										JOINT RightHandThumb1
										{
											OFFSET -9.870895 -7.205978 9.687082
											CHANNELS 3 Xrotation Yrotation Zrotation
											JOINT RightHandThumb2
											{
												OFFSET -1.819832 -1.059479 1.085295
												CHANNELS 3 Xrotation Yrotation Zrotation
												JOINT RightHandThumb3
												{
													OFFSET -2.094826 -1.219513 1.249285
													CHANNELS 3 Xrotation Yrotation Zrotation
													JOINT RightHandThumb4
													{
														OFFSET -4.803757 -2.796585 2.864836
														CHANNELS 3 Xrotation Yrotation Zrotation
														End Site
														{
															OFFSET 0.000000 0.000000 0.000000
														}
													}
												}
											}
										}
										JOINT RightHandIndex1
										{
											OFFSET -18.323013 -0.939499 4.853236
											CHANNELS 3 Xrotation Yrotation Zrotation
											JOINT RightHandIndex2
											{
												OFFSET -4.710800 -0.000031 0.066705
												CHANNELS 3 Xrotation Yrotation Zrotation
												JOINT RightHandIndex3
												{
													OFFSET -2.876869 -0.226089 0.045846
													CHANNELS 3 Xrotation Yrotation Zrotation
													JOINT RightHandIndex4
													{
														OFFSET -6.145317 0.000000 0.087043
														CHANNELS 3 Xrotation Yrotation Zrotation
														End Site
														{
															OFFSET 0.000000 0.000000 0.000000
														}
													}
												}
											}
										}
										JOINT RightHandMiddle1
										{
											OFFSET -18.011230 -0.000031 0.254973
											CHANNELS 3 Xrotation Yrotation Zrotation
											JOINT RightHandMiddle2
											{
												OFFSET -4.946175 0.000000 0.069982
												CHANNELS 3 Xrotation Yrotation Zrotation
												JOINT RightHandMiddle3
												{
													OFFSET -3.341881 0.000000 0.047287
													CHANNELS 3 Xrotation Yrotation Zrotation
													JOINT RightHandMiddle4
													{
														OFFSET -4.461334 -0.000031 0.063116
														CHANNELS 3 Xrotation Yrotation Zrotation
														End Site
														{
															OFFSET 0.000000 0.000000 0.000000
														}
													}
												}
											}
										}
										JOINT RightHandRing1
										{
											OFFSET -15.906685 -0.087631 -3.901773
											CHANNELS 3 Xrotation Yrotation Zrotation
											JOINT RightHandRing2
											{
												OFFSET -3.526680 -0.000046 0.049887
												CHANNELS 3 Xrotation Yrotation Zrotation
												JOINT RightHandRing3
												{
													OFFSET -2.960831 0.000015 0.041926
													CHANNELS 3 Xrotation Yrotation Zrotation
													JOINT RightHandRing4
													{
														OFFSET -4.926727 -0.000061 0.069777
														CHANNELS 3 Xrotation Yrotation Zrotation
														End Site
														{
															OFFSET 0.000000 0.000000 0.000000
														}
													}
												}
											}
										}
										JOINT RightHandPinky1
										{
											OFFSET -12.886818 -0.806839 -6.620485
											CHANNELS 3 Xrotation Yrotation Zrotation
											JOINT RightHandPinky2
											{
												OFFSET -3.326813 -0.000015 0.047130
												CHANNELS 3 Xrotation Yrotation Zrotation
												JOINT RightHandPinky3
												{
													OFFSET -3.014618 0.000000 0.042665
													CHANNELS 3 Xrotation Yrotation Zrotation
													JOINT RightHandPinky4
													{
														OFFSET -5.847153 -0.000031 0.082798
														CHANNELS 3 Xrotation Yrotation Zrotation
														End Site
														{
															OFFSET 0.000000 0.000000 0.000000
														}
													}
												}
											}
										}
									}
								}
							}
						}
					}
				}
			}
		}
	}
	JOINT LeftUpLeg
	{
		OFFSET 13.026871 -6.336296 -1.092769
		CHANNELS 3 Xrotation Yrotation Zrotation
		JOINT LeftLeg
		{
			OFFSET 0.531735 -46.096748 9.782727
			CHANNELS 3 Xrotation Yrotation Zrotation
			JOINT LeftFoot
			{
				OFFSET -0.516061 -53.427502 -12.948194
				CHANNELS 3 Xrotation Yrotation Zrotation
				JOINT LeftToeBase
				{
					OFFSET 0.192221 -14.009666 16.364061
					CHANNELS 3 Xrotation Yrotation Zrotation
					JOINT LeftToe_End
					{
						OFFSET -1.784717 -0.561736 9.474806
						CHANNELS 3 Xrotation Yrotation Zrotation
						End Site
						{
							OFFSET 0.000000 0.000000 0.000000
						}
					}
				}
			}
		}
	}
	JOINT RightUpLeg
	{
		OFFSET -12.882952 -6.336288 -1.092769
		CHANNELS 3 Xrotation Yrotation Zrotation
		JOINT RightLeg
		{
			OFFSET -0.517510 -46.096909 9.782776
			CHANNELS 3 Xrotation Yrotation Zrotation
			JOINT RightFoot
			{
				OFFSET 0.532756 -53.427311 -12.948288
				CHANNELS 3 Xrotation Yrotation Zrotation
				JOINT RightToeBase
				{
					OFFSET -0.192224 -14.009682 16.364050
					CHANNELS 3 Xrotation Yrotation Zrotation
					JOINT RightToe_End
					{
						OFFSET 1.784716 -0.561743 9.474806
						CHANNELS 3 Xrotation Yrotation Zrotation
						End Site
						{
							OFFSET 0.000000 0.000000 0.000000
						}
					}
				}
			}
		}
	}
}
MOTION
Frames: 4
Frame Time: 0.016667
4.254389 135.816818 3.505346 -12.453003 -0.140386 -2.132455 -2.992503 -3.424040 3.083226 1.341447 -0.394058 2.093240 0.000000 0.000000 0.000000 1.345713 -0.282894 2.116648 9.657574 -4.849569 7.404080 10.314034 -25.265823 25.481327 0.000002 0.000004 0.000001 0.516762 0.363761 -1.538069 0.000000 0.000000 0.000000 -66.915261 12.471825 -6.242497 0.491953 -103.323489 0.505534 33.146375 -17.336009 57.971654 -33.715781 -0.700120 -2.242732 0.571762 13.188317 10.532433 -2.115588 4.233672 7.189880 0.000002 0.000001 -0.000001 0.018561 -1.771134 14.180754 -0.052134 0.212387 3.582031 0.070674 -0.047197 -4.948074 0.000003 0.000000 0.000000 -1.091086 3.243927 12.974120 0.048897 0.352134 -2.837981 0.039206 0.291997 -2.346492 -0.000000 0.000002 0.000002 -2.120512 9.594236 11.550056 0.104973 0.651752 -5.284493 0.092530 0.592789 -4.784066 0.000002 -0.000003 0.000002 -3.513220 19.306074 11.122371 0.153314 -3.173496 -7.654843 0.142794 0.823275 -6.684956 -0.000001 -0.000002 0.000000 0.412526 -1.336043 6.748178 0.000000 0.000000 0.000000 -57.441269 -8.896422 -3.486716 0.781060 98.485160 -0.789452 12.485687 33.180974 -69.123270 -14.231681 7.045961 -4.565111 7.462465 -13.880853 0.364854 0.085884 -2.484345 -2.014467 -0.000001 0.000000 0.000002 0.237258 -1.193187 9.634332 -0.041415 -0.286630 -3.003777 0.078030 0.010838 5.237229 -0.000000 -0.000000 -0.000000 0.875918 -5.508528 8.396079 0.014589 -0.120511 0.959415 0.213875 -0.004898 0.041760 0.000000 -0.000001 0.000001 1.471464 -10.931728 6.893923 0.004648 -0.040278 0.319604 0.201692 0.104323 -0.867063 0.000001 -0.000000 0.000002 1.815441 -15.805876 5.567393 -0.000002 -0.000393 0.000067 -0.020563 0.210219 -1.668597 -0.000001 0.000000 0.000002 -0.512330 -22.864765 17.058001 87.869591 5.210916 0.150842 18.018698 6.056480 12.249370 0.000019 -0.000006 0.000002 0.000000 0.000002 -0.000001 -5.375694 18.878365 -17.988714 64.460689 9.752331 -6.826261 22.624199 0.283463 11.829121 0.000000 0.000004 0.000002 0.000003 0.000001 0.000000 
4.384184 136.169693 4.550457 -11.413281 -0.315759 -2.956307 -4.295693 -3.938646 3.753728 2.021576 -0.426599 2.098099 0.000000 0.000000 0.000000 2.027288 -0.327235 2.120047 9.516427 -4.818841 7.555534 10.160709 -24.632282 24.655159 0.000002 0.000001 0.000001 0.564557 0.109993 -2.559816 0.000000 0.000000 0.000000 -64.774331 12.006279 -6.955703 0.663884 -99.956533 0.673962 33.412893 -17.491279 56.909515 -33.131482 -0.392146 -1.822325 0.649687 13.230303 10.404110 -2.077242 4.251255 7.130907 0.000002 0.000001 -0.000003 0.009313 -1.700070 13.608460 -0.049361 0.231640 3.428456 0.072603 -0.037780 -5.024872 -0.000001 0.000000 -0.000000 -0.994127 3.144255 12.215491 0.055535 0.391841 -3.159303 0.043947 0.322062 -2.589584 -0.000002 -0.000001 0.000001 -1.861535 9.280691 10.539268 0.118862 0.716837 -5.815937 0.103771 0.648038 -5.234412 -0.000001 0.000000 -0.000001 -2.982080 18.814142 9.829597 0.174899 -3.090012 -8.341747 0.160649 0.897733 -7.296519 -0.000001 -0.000000 -0.000003 0.561008 -1.704313 9.078655 0.000000 0.000000 0.000000 -54.821161 -11.641525 -2.331473 1.119318 95.944022 -1.125066 12.252742 36.822479 -67.138820 -13.871680 6.649139 -4.829804 7.462467 -13.880856 0.364851 0.085882 -2.484345 -2.014471 -0.000002 -0.000001 0.000000 0.244408 -1.217857 9.837630 -0.037336 -0.313178 -2.793563 0.080726 -0.002194 5.342325 -0.000000 0.000000 0.000001 0.890394 -5.391105 8.759368 0.017675 -0.144009 1.146743 0.188478 -0.031458 0.259180 0.000001 0.000000 -0.000002 1.533685 -10.632764 7.460035 0.006706 -0.057436 0.456353 0.174964 0.058159 -0.486136 -0.000001 0.000000 0.000001 1.958276 -15.342459 6.323342 -0.000009 -0.000389 0.000070 -0.014132 0.137370 -1.090415 -0.000000 -0.000000 -0.000000 -1.945202 -15.890640 15.387824 79.399385 4.086466 1.991989 14.307896 4.265810 11.330684 -0.000012 0.000014 0.000004 -0.000000 -0.000000 -0.000001 -5.728383 13.239996 -15.895940 55.541056 10.221457 -7.094509 17.709673 2.542018 13.077446 -0.000001 -0.000003 -0.000001 -0.000003 -0.000000 0.000001 
4.335508 136.358414 5.499862 -10.184047 -0.538191 -3.533010 -6.197177 -4.396977 4.101667 2.861510 -0.453707 2.096758 0.000000 0.000000 0.000000 2.868643 -0.368867 2.115150 9.329691 -4.722055 7.652863 9.856692 -23.667294 23.679656 0.000002 -0.000002 -0.000000 0.612456 -0.061212 -3.956663 0.000000 0.000000 0.000000 -62.099574 11.750278 -8.355354 1.024408 -96.490547 1.030879 32.789344 -17.480440 55.300193 -32.519026 -0.061626 -1.387818 0.732024 13.274511 10.268582 -2.036742 4.269805 7.068637 -0.000002 -0.000002 0.000002 0.000301 -1.624702 13.002237 -0.046365 0.252124 3.265110 0.074648 -0.027759 -5.106548 -0.000000 0.000001 0.000000 -0.892350 3.024855 11.399863 0.063064 0.435355 -3.512015 0.049349 0.355357 -2.858869 -0.000001 -0.000002 -0.000003 -1.592819 8.915866 9.442746 0.134939 0.788796 -6.404719 0.116831 0.709529 -5.736484 -0.000001 -0.000001 -0.000001 -2.429807 18.239865 8.424705 0.200059 -2.997643 -9.104682 0.181500 0.980680 -7.979438 0.000000 -0.000000 -0.000001 0.739614 -2.066470 11.578824 0.000000 0.000000 0.000000 -51.423429 -14.880798 -0.766772 2.004869 93.327951 -2.007888 10.881498 40.134448 -63.925871 -13.495233 6.229387 -5.103350 7.462467 -13.880853 0.364851 0.085884 -2.484344 -2.014473 0.000001 -0.000000 0.000002 0.252026 -1.243778 10.051462 -0.032926 -0.341096 -2.572448 0.083599 -0.015873 5.452916 0.000000 -0.000000 0.000001 0.902118 -5.244221 9.168081 0.023451 -0.186547 1.486384 0.134652 -0.065654 0.535062 0.000001 0.000000 0.000000 1.594412 -10.264621 8.114735 0.014400 -0.119173 0.948325 0.118933 -0.001490 0.001570 -0.000000 0.000000 -0.000002 2.105532 -14.772934 7.206374 0.008239 -0.070401 0.557576 -0.005524 0.050840 -0.402707 0.000000 -0.000000 0.000002 -3.245817 -7.837348 13.254983 69.895464 -0.430654 4.883442 11.720543 4.121574 9.331422 -0.000000 -0.000003 0.000003 -0.000001 0.000000 -0.000003 -5.142593 9.041224 -14.297696 45.549155 8.608367 -6.033521 14.311253 7.926653 14.532225 0.000003 -0.000003 -0.000006 -0.000001 0.000001 -0.000001 
4.127800 136.215775 6.286537 -8.864137 -0.787058 -3.697611 -8.508653 -4.729199 4.008383 3.797964 -0.479772 2.056644 0.000000 0.000000 0.000000 3.806294 -0.410126 2.069780 9.100109 -4.559094 7.670185 9.248854 -22.438375 22.518224 -0.000000 0.000002 -0.000001 0.663781 -0.192291 -5.673785 0.000000 0.000000 0.000000 -58.963705 11.728493 -10.562199 2.224067 -93.002922 2.226914 31.234653 -17.051106 52.926327 -31.880181 0.291408 -0.941407 0.818546 13.320805 10.126144 -1.994225 4.289337 7.003267 0.000001 0.000002 -0.000000 -0.008310 -1.545235 12.363713 -0.043116 0.273751 3.092448 0.076829 -0.017172 -5.192890 0.000000 -0.000000 -0.000001 -0.788223 2.888361 10.532237 0.071509 0.482303 -3.892790 0.055396 0.391481 -3.151267 -0.000000 -0.000000 -0.000001 -1.321843 8.505643 8.270452 0.153227 0.866686 -7.043779 0.131680 0.776398 -6.283486 0.000000 0.000001 0.000000 -1.871814 17.591164 6.924181 0.228811 -2.897687 -9.933711 0.205365 1.070768 -8.724043 -0.000000 0.000000 0.000001 0.853342 -2.433700 12.000091 0.000000 0.000000 0.000000 -46.417525 -19.895564 2.984960 15.068466 90.453056 -15.068147 8.184535 42.818391 -59.523275 -13.103578 5.787435 -5.384414 7.462467 -13.880855 0.364853 0.085884 -2.484343 -2.014473 0.000001 0.000000 -0.000000 0.260097 -1.270884 10.275376 -0.028217 -0.370305 -2.340942 0.086605 -0.030201 5.568669 -0.000000 -0.000000 -0.000001 0.910335 -5.071965 9.617026 0.031318 -0.241360 1.924462 0.067230 -0.106145 0.855652 -0.000000 0.000000 0.000001 1.649174 -9.836758 8.846579 0.026327 -0.207061 1.649917 0.049737 -0.073952 0.583150 -0.000000 0.000001 -0.000001 2.246677 -14.111499 8.198612 0.022965 -0.183117 1.456503 0.005538 -0.047580 0.380444 0.000000 0.000000 0.000000 -3.667654 -1.556967 11.870659 59.381077 -2.100292 6.416748 10.937851 -0.410614 6.214308 -0.000011 0.000000 0.000001 0.000001 0.000000 0.000003 -3.883086 6.163215 -12.806316 35.549021 7.898847 -3.984527 13.081440 12.143458 16.523378 0.000001 -0.000001 0.000002 0.000003 -0.000000 0.000000 
